<?xml version="1.0" encoding="UTF-8"?> <svg xmlns="http://www.w3.org/2000/svg" width="352" height="198" viewBox="0 0 352 198" fill="none"><g clip-path="url(#clip0_199_8523)"><rect width="352" height="198" fill="#FDE0D6"></rect><path fill-rule="evenodd" clip-rule="evenodd" d="M118.529 10.1685L182.167 101.01L207.105 0.363888L255.487 8.42749L293.152 -38.0214L308.686 -25.4247L263.687 30.07L222.068 23.1336L191.007 148.488L123.644 52.3285L50.4126 241.36L31.7632 234.135L118.529 10.1685Z" fill="url(#paint0_linear_199_8523)"></path><path fill-rule="evenodd" clip-rule="evenodd" d="M130.615 121.418L194.253 212.26L219.191 111.614L267.219 119.619L355.912 -2.3816L372.089 9.37883L276.126 141.379L234.154 134.384L203.093 259.738L135.73 163.579L62.4985 352.61L43.8491 345.385L130.615 121.418Z" fill="url(#paint1_linear_199_8523)"></path><line x1="28.7071" y1="27.2929" x2="157.742" y2="156.328" stroke="#FF5C00" stroke-width="2"></line><line x1="75.7071" y1="27.2929" x2="204.742" y2="156.328" stroke="#FF5C00" stroke-width="2"></line><line x1="122.707" y1="27.2929" x2="251.742" y2="156.328" stroke="#FF5C00" stroke-width="2"></line><line x1="169.707" y1="27.2929" x2="298.742" y2="156.328" stroke="#FF5C00" stroke-width="2"></line><line x1="216.707" y1="27.2929" x2="345.742" y2="156.328" stroke="#FF5C00" stroke-width="2"></line></g><defs><linearGradient id="paint0_linear_199_8523" x1="278.214" y1="-32.3374" x2="35.751" y2="170.495" gradientUnits="userSpaceOnUse"><stop stop-color="#E89F86"></stop><stop offset="1" stop-color="#FFBCA6"></stop></linearGradient><linearGradient id="paint1_linear_199_8523" x1="350.5" y1="16.9986" x2="44.5005" y2="260.499" gradientUnits="userSpaceOnUse"><stop stop-color="#E89F86"></stop><stop offset="1" stop-color="#FFBCA6"></stop></linearGradient><clipPath id="clip0_199_8523"><rect width="352" height="198" fill="white"></rect></clipPath></defs></svg> 