<?xml version="1.0" encoding="UTF-8"?> <svg xmlns="http://www.w3.org/2000/svg" width="352" height="198" viewBox="0 0 352 198" fill="none"><g clip-path="url(#clip0_199_8531)"><rect width="352" height="198" fill="#E1ECEC"></rect><path fill-rule="evenodd" clip-rule="evenodd" d="M175.961 203.308L70.7598 141.936L85.0072 132.721L175.961 185.782L267.294 132.5L281.473 141.755L175.961 203.308ZM175.961 153.118L70.7598 91.7463L85.0072 82.5312L175.961 135.592L267.294 82.3101L281.473 91.5655L175.961 153.118ZM175.955 104.865L84.1755 51.2283L175.955 -2.99982L267.735 51.2283L175.955 104.865ZM175.955 87.3306L114.057 51.1568L175.955 14.5842L237.854 51.1568L175.955 87.3306Z" fill="#166F6D"></path><path fill-rule="evenodd" clip-rule="evenodd" d="M70.7598 91.7463L175.961 153.118L281.473 91.5655L267.294 82.3101L175.961 135.592L85.0072 82.5312L70.7598 91.7463Z" fill="#2A6A69"></path><path fill-rule="evenodd" clip-rule="evenodd" d="M70.7598 141.936L175.961 203.308L281.473 141.755L267.294 132.5L175.961 185.782L85.0072 132.721L70.7598 141.936Z" fill="#2A6A69"></path></g><defs><clipPath id="clip0_199_8531"><rect width="352" height="198" fill="white"></rect></clipPath></defs></svg> 