<?xml version="1.0" encoding="UTF-8"?> <svg xmlns="http://www.w3.org/2000/svg" width="352" height="198" viewBox="0 0 352 198" fill="none"><rect width="352" height="198" fill="#FFF1ED"></rect><ellipse cx="166" cy="98.5" rx="122" ry="77.5" fill="#DC3649"></ellipse><circle cx="166.5" cy="98.5" r="61.5" fill="#FF5C00"></circle><path fill-rule="evenodd" clip-rule="evenodd" d="M235.29 135.072C241.063 124.214 244.333 111.822 244.333 98.6667C244.333 85.5112 241.063 73.1197 235.29 62.261L235.978 61.8651C236.279 61.6922 236.66 61.8702 236.72 62.2117L237.113 64.4388C237.219 65.0405 238.105 64.9629 238.105 64.352V60.9309C238.105 60.752 238.201 60.5867 238.356 60.4975L242.408 58.1665C242.741 57.9747 243.157 58.2153 243.157 58.5999V64.4836C243.157 65.0945 244.044 65.1721 244.15 64.5704L245.562 56.5587C245.588 56.4129 245.677 56.286 245.806 56.2121L250.379 53.5812C250.747 53.3696 251.195 53.6836 251.121 54.1014L249.101 65.5569C248.995 66.1586 249.854 66.3888 250.063 65.8148L255.549 50.743C255.589 50.6323 255.667 50.5394 255.77 50.4806L261.217 47.3469C261.622 47.1144 262.096 47.5131 261.937 47.9514L254.768 67.6471C254.559 68.2211 255.365 68.5971 255.671 68.0681L270.758 41.937C270.802 41.8607 270.865 41.7975 270.941 41.7536L277.655 37.8918C278.099 37.6363 278.594 38.1347 278.336 38.5773L260.285 69.502C259.974 70.0337 260.712 70.5471 261.103 70.0715L296.335 27.1836C296.373 27.137 296.42 27.0977 296.472 27.0676L306.271 21.431C306.605 21.2393 307.021 21.4799 307.021 21.8644V21.8805C307.021 21.998 306.979 22.1118 306.904 22.2019L263.688 73.7043C263.295 74.1723 263.924 74.8014 264.392 74.4087L306.199 39.3286C306.524 39.0556 307.021 39.2869 307.021 39.7116V44.9952C307.021 45.143 306.955 45.2832 306.842 45.3782L267.73 78.197C267.262 78.5896 267.772 79.3185 268.301 79.013L306.271 57.0915C306.604 56.8991 307.021 57.1397 307.021 57.5246V62.1981C307.021 62.3768 306.925 62.5418 306.771 62.6312L270.928 83.3248C270.399 83.6303 270.775 84.4366 271.349 84.2277L306.35 71.4886C306.676 71.3699 307.021 71.6114 307.021 71.9584V76.2684C307.021 76.4786 306.889 76.6664 306.692 76.7383L273.176 88.9368C272.602 89.1457 272.832 90.0051 273.434 89.8991L306.434 84.0803C306.74 84.0264 307.021 84.2619 307.021 84.5727V88.6843C307.021 88.927 306.846 89.1346 306.607 89.1767L274.425 94.8513C273.824 94.9574 273.901 95.8437 274.512 95.8437H306.521C306.797 95.8437 307.021 96.0675 307.021 96.3437V100.393C307.021 100.67 306.797 100.893 306.521 100.893H274.619C274.008 100.893 273.93 101.78 274.532 101.886L306.607 107.542C306.846 107.584 307.021 107.791 307.021 108.034V112.144C307.021 112.455 306.74 112.69 306.434 112.636L273.753 106.874C273.151 106.768 272.921 107.627 273.495 107.836L306.692 119.918C306.889 119.99 307.021 120.178 307.021 120.388V124.695C307.021 125.043 306.676 125.284 306.35 125.165L271.875 112.618C271.301 112.409 270.925 113.215 271.454 113.52L306.771 133.911C306.925 134 307.021 134.165 307.021 134.344V139.017C307.021 139.402 306.604 139.643 306.271 139.45L269.082 117.979C268.553 117.674 268.042 118.403 268.51 118.795L306.842 150.959C306.955 151.054 307.021 151.194 307.021 151.342V156.626C307.021 157.051 306.524 157.282 306.199 157.009L265.294 122.685C264.826 122.293 264.197 122.922 264.59 123.39L306.904 173.818C306.979 173.908 307.021 174.021 307.021 174.139V175.469C307.021 175.853 306.605 176.094 306.271 175.902L298.215 171.268C298.164 171.239 298.119 171.201 298.081 171.156L260.801 126.728C260.409 126.26 259.68 126.77 259.985 127.299L278.054 158.595C278.31 159.038 277.815 159.534 277.372 159.279L270.375 155.254C270.298 155.21 270.235 155.147 270.191 155.07L255.678 129.934C255.373 129.405 254.567 129.781 254.776 130.355L261.638 149.21C261.798 149.649 261.323 150.047 260.919 149.815L255.466 146.678C255.363 146.619 255.285 146.526 255.245 146.415L250.066 132.186C249.857 131.612 248.998 131.842 249.104 132.444L250.993 143.158C251.067 143.576 250.619 143.89 250.251 143.678L245.673 141.045C245.545 140.971 245.456 140.844 245.43 140.698L244.15 133.438C244.044 132.837 243.157 132.914 243.157 133.525V138.733C243.157 139.118 242.741 139.359 242.408 139.167L238.356 136.836C238.201 136.747 238.105 136.581 238.105 136.402V133.634C238.105 133.023 237.219 132.946 237.113 133.547L236.824 135.182C236.764 135.523 236.383 135.701 236.083 135.528L235.29 135.072ZM235.29 135.072C222.24 159.619 196.405 176.333 166.667 176.333C123.773 176.333 89 141.561 89 98.6667C89 55.7725 123.773 21 166.667 21C196.405 21 222.24 37.7142 235.29 62.261L232.243 64.0135C232.061 64.1185 231.964 64.3265 232 64.5338L232.118 65.2022C232.224 65.8038 231.365 66.034 231.156 65.46L231.112 65.3402C231.006 65.0484 230.662 64.923 230.393 65.0778L226.788 67.1515C226.6 67.2594 226.517 67.4867 226.591 67.6901L226.639 67.8214C226.82 68.319 226.121 68.6449 225.857 68.1863C225.737 67.9793 225.472 67.9082 225.265 68.0274L221.635 70.1158C221.431 70.2332 221.361 70.4937 221.478 70.6975C221.738 71.1478 221.118 71.5822 220.784 71.1839L220.692 71.0747C220.556 70.9121 220.322 70.8708 220.138 70.9766L216.516 73.06C216.253 73.2111 216.191 73.5631 216.386 73.7954C216.769 74.2514 216.156 74.8644 215.7 74.4818L215.294 74.1416C215.133 74.0067 214.905 73.9865 214.723 74.0912L210.988 76.2401C210.687 76.4133 210.65 76.8332 210.916 77.0565L212.315 78.2307C212.783 78.6234 212.273 79.3522 211.744 79.0467L209.181 77.5671C209.026 77.4779 208.836 77.4778 208.681 77.5667L204.627 79.8992C204.293 80.0913 204.292 80.573 204.626 80.7656L209.068 83.3303C209.597 83.6358 209.221 84.4421 208.647 84.2332L201.789 81.7369C201.65 81.6865 201.496 81.6998 201.368 81.7734L196.782 84.4114C196.414 84.6233 196.461 85.1692 196.861 85.3146L206.815 88.9377C207.389 89.1466 207.159 90.006 206.557 89.8999L191.951 87.3246C191.836 87.3042 191.717 87.3251 191.615 87.3836L186.147 90.5292C185.742 90.7621 185.849 91.3739 186.309 91.455L205.57 94.8513C206.172 94.9574 206.095 95.8437 205.484 95.8437H177.041C176.954 95.8437 176.868 95.8666 176.792 95.9103L172.753 98.2333C172.419 98.4255 172.419 98.9078 172.753 99.1001L175.755 100.827C175.831 100.87 175.917 100.893 176.005 100.893H205.367C205.978 100.893 206.056 101.78 205.454 101.886L185.488 105.406C185.028 105.487 184.921 106.099 185.326 106.332L190.797 109.479C190.898 109.537 191.017 109.558 191.133 109.538L206.214 106.879C206.816 106.773 207.046 107.632 206.472 107.841L196.137 111.603C195.738 111.748 195.69 112.294 196.059 112.506L200.648 115.146C200.776 115.219 200.93 115.232 201.068 115.182L208.108 112.62C208.682 112.411 209.058 113.217 208.529 113.522L203.939 116.173C203.605 116.365 203.606 116.847 203.94 117.039L207.995 119.372C208.149 119.46 208.34 119.46 208.494 119.371L210.963 117.946C211.492 117.64 212.003 118.369 211.535 118.762L210.212 119.872C209.945 120.095 209.982 120.515 210.284 120.688L214.019 122.837C214.201 122.942 214.429 122.922 214.59 122.787L214.969 122.469C215.406 122.102 215.995 122.69 215.627 123.128C215.44 123.351 215.5 123.689 215.753 123.834L219.569 126.029C219.773 126.147 220.032 126.101 220.185 125.921L220.282 125.806C220.652 125.367 221.338 125.843 221.056 126.344C220.929 126.57 221.008 126.857 221.233 126.986L225.588 129.492C225.774 129.599 226.011 129.535 226.118 129.349C226.356 128.938 226.982 129.23 226.82 129.676L226.777 129.794C226.71 129.976 226.785 130.18 226.953 130.277L230.622 132.387C230.873 132.532 231.194 132.415 231.294 132.142C231.489 131.606 232.292 131.821 232.193 132.383L232.108 132.862C232.072 133.069 232.169 133.277 232.351 133.382L235.29 135.072Z" fill="#F3C0AF"></path></svg> 