<?xml version="1.0" encoding="UTF-8"?> <svg xmlns="http://www.w3.org/2000/svg" width="352" height="198" viewBox="0 0 352 198" fill="none"><g clip-path="url(#clip0_199_8530)"><rect width="352" height="198" fill="#EBE7EF"></rect><path d="M212.991 34.9746L247.446 79.8769L240.058 135.991L195.156 170.446L139.042 163.058L104.587 118.156L111.975 62.0418L156.877 27.587L212.991 34.9746Z" fill="#A598B2"></path><path d="M161.025 34.5598L212.291 55.7946L233.525 107.06L212.291 158.325L161.025 179.56L109.76 158.325L88.5254 107.06L109.76 55.7946L161.025 34.5598Z" fill="#00B3E6" style="mix-blend-mode:overlay"></path><path d="M180.246 50.355L212.434 75.0542L217.73 115.28L193.031 147.469L152.805 152.764L120.617 128.065L115.321 87.8395L140.02 55.6509L180.246 50.355Z" fill="#DC3649"></path><line x1="114.525" y1="100.56" x2="218.525" y2="100.56" stroke="#101820" stroke-width="20"></line></g><defs><clipPath id="clip0_199_8530"><rect width="352" height="198" fill="white"></rect></clipPath></defs></svg> 